<svg width="32" height="32" viewBox="0 0 32 32" fill="none" xmlns="http://www.w3.org/2000/svg">
<g clip-path="url(#clip0_20434_290)">
<path d="M0 4H32V28H0V4Z" fill="#012169"/>
<path d="M3.75 4L15.95 13.05L28.1 4H32V7.1L20 16.05L32 24.95V28H28L16 19.05L4.05 28H0V25L11.95 16.1L0 7.2V4H3.75Z" fill="white"/>
<path d="M21.2 18.05L32 26V28L18.45 18.05H21.2ZM12 19.05L12.3 20.8L2.7 28H0L12 19.05ZM32 4V4.15L19.55 13.55L19.65 11.35L29.5 4H32ZM0 4L11.95 12.8H8.95L0 6.1V4Z" fill="#C8102E"/>
<path d="M12.05 4V28H20.05V4H12.05ZM0 12V20H32V12H0Z" fill="white"/>
<path d="M0 13.65V18.45H32V13.65H0ZM13.65 4V28H18.45V4H13.65Z" fill="#C8102E"/>
</g>
<defs>
<clipPath id="clip0_20434_290">
<rect width="32" height="24" fill="white" transform="translate(0 4)"/>
</clipPath>
</defs>
</svg>
